<mxfile host="app.diagrams.net" modified="2020-12-09T12:04:01.572Z" agent="5.0 (Windows NT 10.0; Win64; x64) AppleWebKit/537.36 (KHTML, like Gecko) Chrome/86.0.4240.185 YaBrowser/20.11.2.78 Yowser/2.5 Safari/537.36" etag="t8XD6oK1QydQRKuUH6Pp" version="14.0.0" type="github">
  <diagram id="xUKXoh4lNRMw0dFjV6iI" name="Page-1">
    <mxGraphModel dx="990" dy="552" grid="1" gridSize="10" guides="1" tooltips="1" connect="1" arrows="1" fold="1" page="1" pageScale="1" pageWidth="827" pageHeight="1169" math="0" shadow="0">
      <root>
        <mxCell id="0" />
        <mxCell id="1" parent="0" />
        <mxCell id="KezzlwJT4mIK54gY69Bh-1" value="" style="whiteSpace=wrap;html=1;aspect=fixed;" vertex="1" parent="1">
          <mxGeometry x="370" y="140" width="80" height="80" as="geometry" />
        </mxCell>
      </root>
    </mxGraphModel>
  </diagram>
</mxfile>
